<svg  viewBox="0 0 16 16" fill="none" xmlns="http://www.w3.org/2000/svg">
<g id="Frame8">
<rect width="100%" height="100%" fill="black"/>
<title>Quadrado preto com letras R e P de Rafael Peres em branco no meio</title>
<path id="RP" d="M8.16602 6.35156C8.16602 6.65625 8.13867 6.93359 8.08398 7.18359C8.0332 7.42969 7.95117 7.65625 7.83789 7.86328C7.72461 8.07031 7.57812 8.26172 7.39844 8.4375C7.21875 8.61328 7.00195 8.78125 6.74805 8.94141L8.14258 11.4258L5.50586 11.9414L4.60352 9.44531L3.87695 9.46875L3.77148 11.9062H1.25195C1.27148 11.0156 1.28906 10.1289 1.30469 9.24609C1.32422 8.36328 1.3457 7.47656 1.36914 6.58594C1.37695 6.13672 1.38477 5.69141 1.39258 5.25C1.40039 4.80859 1.41602 4.36328 1.43945 3.91406C1.71289 3.8125 1.98242 3.72852 2.24805 3.66211C2.51367 3.5957 2.7793 3.54492 3.04492 3.50977C3.31445 3.4707 3.58594 3.44531 3.85938 3.43359C4.13672 3.41797 4.41992 3.41016 4.70898 3.41016C5.1543 3.41016 5.58398 3.47266 5.99805 3.59766C6.41602 3.71875 6.78516 3.90234 7.10547 4.14844C7.42578 4.39453 7.68164 4.70117 7.87305 5.06836C8.06836 5.43555 8.16602 5.86328 8.16602 6.35156ZM5.54102 6.53906C5.54102 6.375 5.51758 6.22461 5.4707 6.08789C5.42773 5.95117 5.36133 5.83398 5.27148 5.73633C5.18555 5.63477 5.07617 5.55664 4.94336 5.50195C4.81445 5.44336 4.66211 5.41406 4.48633 5.41406C4.4082 5.41406 4.33203 5.41992 4.25781 5.43164C4.18359 5.43945 4.11133 5.45312 4.04102 5.47266L3.94727 7.65234H4.08789C4.25586 7.65234 4.42578 7.63086 4.59766 7.58789C4.77344 7.54492 4.92969 7.47852 5.06641 7.38867C5.20703 7.29883 5.32031 7.18359 5.40625 7.04297C5.49609 6.90234 5.54102 6.73438 5.54102 6.53906ZM15.4023 6.36328C15.4023 6.74219 15.3457 7.07812 15.2324 7.37109C15.1191 7.66406 14.9629 7.91992 14.7637 8.13867C14.5684 8.35742 14.3379 8.54297 14.0723 8.69531C13.8066 8.84766 13.5215 8.97266 13.2168 9.07031C12.916 9.16406 12.6035 9.23438 12.2793 9.28125C11.9551 9.32422 11.6367 9.34766 11.3242 9.35156V12.082H8.59375C8.59375 11.1875 8.5957 10.2969 8.59961 9.41016C8.60352 8.52344 8.60938 7.62891 8.61719 6.72656C8.625 6.25 8.62695 5.77344 8.62305 5.29688C8.61914 4.82031 8.62891 4.33984 8.65234 3.85547C9.15234 3.70703 9.65234 3.5957 10.1523 3.52148C10.6523 3.44727 11.168 3.41016 11.6992 3.41016C12 3.41016 12.3008 3.43555 12.6016 3.48633C12.9023 3.5332 13.1895 3.60938 13.4629 3.71484C13.7402 3.82031 13.9961 3.95313 14.2305 4.11328C14.4688 4.26953 14.6738 4.45703 14.8457 4.67578C15.0176 4.89453 15.1523 5.14453 15.25 5.42578C15.3516 5.70312 15.4023 6.01562 15.4023 6.36328ZM12.8008 6.5625C12.8008 6.30859 12.7227 6.11133 12.5664 5.9707C12.4141 5.82617 12.2148 5.75391 11.9688 5.75391C11.8867 5.75391 11.8008 5.76172 11.7109 5.77734C11.625 5.78906 11.543 5.80469 11.4648 5.82422L11.3945 7.53516C11.4492 7.54297 11.502 7.54688 11.5527 7.54688C11.6035 7.54688 11.6562 7.54688 11.7109 7.54688C11.8516 7.54688 11.9863 7.52344 12.1152 7.47656C12.248 7.42969 12.3652 7.36328 12.4668 7.27734C12.5684 7.1875 12.6484 7.08398 12.707 6.9668C12.7695 6.8457 12.8008 6.71094 12.8008 6.5625Z" fill="white"/>
</g>
</svg>
