<svg width="100%" height="100%" viewBox="0 0 50 50" fill="none" xmlns="http://www.w3.org/2000/svg">
<rect width="50" height="50" fill="black"/>
<path d="M25.6924 19.1133C25.6924 20.0781 25.6058 20.9564 25.4326 21.748C25.2718 22.5273 25.012 23.2448 24.6533 23.9004C24.2946 24.556 23.8307 25.1621 23.2617 25.7188C22.6927 26.2754 22.0062 26.8073 21.2021 27.3145L25.6182 35.1816L17.2686 36.8145L14.4111 28.9102L12.1104 28.9844L11.7764 36.7031H3.79785C3.8597 33.8828 3.91536 31.0749 3.96484 28.2793C4.02669 25.4837 4.09473 22.6758 4.16895 19.8555C4.19368 18.4329 4.21842 17.0228 4.24316 15.625C4.2679 14.2272 4.31738 12.8171 4.3916 11.3945C5.25749 11.0729 6.111 10.807 6.95215 10.5967C7.79329 10.3864 8.63444 10.2256 9.47559 10.1143C10.3291 9.99056 11.1888 9.91016 12.0547 9.87305C12.9329 9.82357 13.8298 9.79883 14.7451 9.79883C16.1553 9.79883 17.516 9.99674 18.8271 10.3926C20.1507 10.776 21.3197 11.3574 22.334 12.1367C23.3483 12.916 24.1585 13.887 24.7646 15.0498C25.3831 16.2126 25.6924 17.5671 25.6924 19.1133ZM17.3799 19.707C17.3799 19.1875 17.3057 18.7113 17.1572 18.2783C17.0212 17.8454 16.8109 17.4743 16.5264 17.165C16.2542 16.8434 15.9079 16.596 15.4873 16.4229C15.0791 16.2373 14.5967 16.1445 14.04 16.1445C13.7926 16.1445 13.5514 16.1631 13.3164 16.2002C13.0814 16.2249 12.8525 16.2682 12.6299 16.3301L12.333 23.2324H12.7783C13.3102 23.2324 13.8483 23.1644 14.3926 23.0283C14.9492 22.8923 15.444 22.682 15.877 22.3975C16.3223 22.113 16.681 21.748 16.9531 21.3027C17.2376 20.8574 17.3799 20.3255 17.3799 19.707ZM48.6074 19.1504C48.6074 20.3503 48.4281 21.4141 48.0693 22.3418C47.7106 23.2695 47.2158 24.0798 46.585 24.7725C45.9665 25.4652 45.2367 26.0527 44.3955 26.5352C43.5544 27.0176 42.6514 27.4134 41.6865 27.7227C40.734 28.0195 39.7445 28.2422 38.7178 28.3906C37.6911 28.5267 36.6829 28.6009 35.6934 28.6133V37.2598H27.0469C27.0469 34.4271 27.0531 31.6068 27.0654 28.7988C27.0778 25.9909 27.0964 23.1582 27.1211 20.3008C27.1458 18.7917 27.152 17.2826 27.1396 15.7734C27.1273 14.2643 27.1582 12.7428 27.2324 11.209C28.8158 10.7389 30.3991 10.3864 31.9824 10.1514C33.5658 9.91634 35.1986 9.79883 36.8809 9.79883C37.8333 9.79883 38.7858 9.87923 39.7383 10.04C40.6908 10.1885 41.5999 10.4297 42.4658 10.7637C43.3441 11.0977 44.1543 11.5182 44.8965 12.0254C45.651 12.5202 46.3005 13.1139 46.8447 13.8066C47.389 14.4993 47.8158 15.291 48.125 16.1816C48.4466 17.0599 48.6074 18.0495 48.6074 19.1504ZM40.3691 19.7812C40.3691 18.9772 40.1217 18.3525 39.627 17.9072C39.1445 17.4495 38.5137 17.2207 37.7344 17.2207C37.4746 17.2207 37.2025 17.2454 36.918 17.2949C36.6458 17.332 36.3861 17.3815 36.1387 17.4434L35.916 22.8613C36.0892 22.8861 36.2562 22.8984 36.417 22.8984C36.5778 22.8984 36.7448 22.8984 36.918 22.8984C37.3633 22.8984 37.79 22.8242 38.1982 22.6758C38.6188 22.5273 38.9899 22.3171 39.3115 22.0449C39.6331 21.7604 39.8867 21.4326 40.0723 21.0615C40.2702 20.6781 40.3691 20.2513 40.3691 19.7812Z" fill="white"/>
</svg>
